{"accessors" : [{"bufferView" : 0, "byteOffset" : 0, "componentType" : 5123, "count" : 196560, "type" : "SCALAR", "max" : [33143], "min" : [0]}, {"bufferView" : 1, "byteOffset" : 0, "componentType" : 5126, "count" : 33144, "type" : "VEC3", "max" : [0, 1049.72534179688, 3870], "min" : [-7620, -765.405578613281, 0]}, {"bufferView" : 0, "byteOffset" : 393120, "componentType" : 5123, "count" : 190536, "type" : "SCALAR", "max" : [32136], "min" : [0]}, {"bufferView" : 2, "byteOffset" : 0, "componentType" : 5126, "count" : 32137, "type" : "VEC3", "max" : [0, 1122.83935546875, 7620], "min" : [-7620, -795.920104980469, 3840]}], "asset" : {"generator" : "Aspose.3D 20.2.1", "version" : "2.0"}, "buffers" : [{"uri" : "buffer.bin", "byteLength" : 1557576}], "bufferViews" : [{"buffer" : 0, "byteOffset" : 0, "byteLength" : 774192, "target" : 34963}, {"buffer" : 0, "byteOffset" : 774196, "byteLength" : 397728, "byteStride" : 12, "target" : 34962}, {"buffer" : 0, "byteOffset" : 1171928, "byteLength" : 385644, "byteStride" : 12, "target" : 34962}], "materials" : [{"pbrMetallicRoughness" : {"baseColorFactor" : [0.752941176470588, 0.752941176470588, 0.752941176470588, 1], "metallicFactor" : 0, "roughnessFactor" : 0}, "emissiveFactor" : [0, 0, 0], "alphaMode" : "OPAQUE", "doubleSided" : false}, {"pbrMetallicRoughness" : {"baseColorFactor" : [0.752941176470588, 0.752941176470588, 0.752941176470588, 1], "metallicFactor" : 0, "roughnessFactor" : 0}, "emissiveFactor" : [0, 0, 0], "alphaMode" : "OPAQUE", "doubleSided" : false}], "meshes" : [{"primitives" : [{"attributes" : {"POSITION" : 1}, "indices" : 0, "material" : 0, "mode" : 4}]}, {"primitives" : [{"attributes" : {"POSITION" : 3}, "indices" : 2, "material" : 1, "mode" : 4}]}], "nodes" : [{"matrix" : [-1, 0, 0, 0, 0, 0, 1, 0, 0, 1, 0, 0, 0, 0, 0, 1], "mesh" : 0, "name" : "Object"}, {"matrix" : [-1, 0, 0, 0, 0, 0, 1, 0, 0, 1, 0, 0, 0, 0, 0, 1], "mesh" : 1, "name" : "Object0"}], "scene" : 0, "scenes" : [{"nodes" : [0, 1]}]}