{
   "accessors" : [
      {
         "bufferView" : 2,
         "byteOffset" : 0,
         "componentType" : 5126,
         "count" : 148,
         "max" : [ 0.6800203323364258, 0.6800203323364258, 0.6800203323364258, 0.2509804 ],
         "min" : [ 0.6800203323364258, 0.6800203323364258, 0.6800203323364258, 0.2509804 ],
         "name" : "accessor_color_m0-PolyGlass24_-120298",
         "type" : "VEC4"
      },
      {
         "bufferView" : 2,
         "byteOffset" : 2368,
         "componentType" : 5126,
         "count" : 100,
         "max" : [ 1, 1, 1, 1 ],
         "min" : [ 1, 1, 1, 1 ],
         "name" : "accessor_color_m1-PolyGem25_-124156",
         "type" : "VEC4"
      },
      {
         "bufferView" : 2,
         "byteOffset" : 3968,
         "componentType" : 5126,
         "count" : 8618,
         "max" : [ 1, 1, 1, 1 ],
         "min" : [ 0.006584956776350737, 0.006584956776350737, 0, 1 ],
         "name" : "accessor_color_m2-PolyPaper23_-124222",
         "type" : "VEC4"
      },
      {
         "bufferView" : 2,
         "byteOffset" : 141856,
         "componentType" : 5126,
         "count" : 9902,
         "max" : [ 1, 1, 1, 1 ],
         "min" : [ 0.006584956776350737, 0.006584956776350737, 0.006584956776350737, 1 ],
         "name" : "accessor_color_m3-PolyPaper14_-123726",
         "type" : "VEC4"
      },
      {
         "bufferView" : 0,
         "byteOffset" : 0,
         "componentType" : 5123,
         "count" : 252,
         "max" : [ 147 ],
         "min" : [ 0 ],
         "name" : "accessor_indices_0_m0-PolyGlass24_-120298",
         "type" : "SCALAR"
      },
      {
         "bufferView" : 0,
         "byteOffset" : 504,
         "componentType" : 5123,
         "count" : 144,
         "max" : [ 99 ],
         "min" : [ 0 ],
         "name" : "accessor_indices_0_m1-PolyGem25_-124156",
         "type" : "SCALAR"
      },
      {
         "bufferView" : 0,
         "byteOffset" : 792,
         "componentType" : 5123,
         "count" : 12162,
         "max" : [ 8617 ],
         "min" : [ 0 ],
         "name" : "accessor_indices_0_m2-PolyPaper23_-124222",
         "type" : "SCALAR"
      },
      {
         "bufferView" : 0,
         "byteOffset" : 25116,
         "componentType" : 5123,
         "count" : 13440,
         "max" : [ 9901 ],
         "min" : [ 0 ],
         "name" : "accessor_indices_0_m3-PolyPaper14_-123726",
         "type" : "SCALAR"
      },
      {
         "bufferView" : 1,
         "byteOffset" : 1776,
         "componentType" : 5126,
         "count" : 148,
         "max" : [ 0.9750181, 0.9748776, 0.9997759000000001 ],
         "min" : [ -0.9750187, -0.9748772999999999, -0.999776 ],
         "name" : "accessor_normal_m0-PolyGlass24_-120298",
         "type" : "VEC3"
      },
      {
         "bufferView" : 1,
         "byteOffset" : 4752,
         "componentType" : 5126,
         "count" : 100,
         "max" : [ 0.9800462, 0.9300424, 0.7919346 ],
         "min" : [ -0.6979654, -0.7643698, -0.9729795 ],
         "name" : "accessor_normal_m1-PolyGem25_-124156",
         "type" : "VEC3"
      },
      {
         "bufferView" : 1,
         "byteOffset" : 109368,
         "componentType" : 5126,
         "count" : 8618,
         "max" : [ 1, 1, 1 ],
         "min" : [ -1, -1, -1 ],
         "name" : "accessor_normal_m2-PolyPaper23_-124222",
         "type" : "VEC3"
      },
      {
         "bufferView" : 1,
         "byteOffset" : 331608,
         "componentType" : 5126,
         "count" : 9902,
         "max" : [ 1, 1, 1 ],
         "min" : [ -1, -1, -1 ],
         "name" : "accessor_normal_m3-PolyPaper14_-123726",
         "type" : "VEC3"
      },
      {
         "bufferView" : 1,
         "byteOffset" : 0,
         "componentType" : 5126,
         "count" : 148,
         "max" : [ 1.259397, 1.16107, 1.111132 ],
         "min" : [ 0.4384938, 0.58745, 0.6512864 ],
         "name" : "accessor_position_m0-PolyGlass24_-120298",
         "type" : "VEC3"
      },
      {
         "bufferView" : 1,
         "byteOffset" : 3552,
         "componentType" : 5126,
         "count" : 100,
         "max" : [ 1.259988, 1.372289, 2.602945 ],
         "min" : [ -0.01753743, 0.7006795, -0.8622209 ],
         "name" : "accessor_position_m1-PolyGem25_-124156",
         "type" : "VEC3"
      },
      {
         "bufferView" : 1,
         "byteOffset" : 5952,
         "componentType" : 5126,
         "count" : 8618,
         "max" : [ 2.09174, 1.397147, 2.635739 ],
         "min" : [ -2.558765, -2.197435, -0.8622209 ],
         "name" : "accessor_position_m2-PolyPaper23_-124222",
         "type" : "VEC3"
      },
      {
         "bufferView" : 1,
         "byteOffset" : 212784,
         "componentType" : 5126,
         "count" : 9902,
         "max" : [ 2.092222, 1.398416, 2.563488 ],
         "min" : [ -2.769966, -2.137214, -0.8826544 ],
         "name" : "accessor_position_m3-PolyPaper14_-123726",
         "type" : "VEC3"
      }
   ],
   "asset" : {
      "copyright" : "Unknown",
      "extras" : {
         "GOOGLE_processor_version" : 294144208
      },
      "generator" : "glTF 1-to-2 Upgrader for Google Blocks",
      "version" : "2.0"
   },
   "bufferViews" : [
      {
         "buffer" : 0,
         "byteLength" : 51996,
         "byteOffset" : 0,
         "name" : "ushortBufferView",
         "target" : 34963
      },
      {
         "buffer" : 0,
         "byteLength" : 450432,
         "byteOffset" : 51996,
         "byteStride" : 12,
         "name" : "vec3BufferView",
         "target" : 34962
      },
      {
         "buffer" : 0,
         "byteLength" : 300288,
         "byteOffset" : 502428,
         "byteStride" : 16,
         "name" : "vec4BufferView",
         "target" : 34962
      }
   ],
   "buffers" : [
      {
         "byteLength" : 802716,
         "name" : "model",
         "uri" : "model.bin"
      }
   ],
   "cameras" : [
      {
         "perspective" : {
            "yfov" : 0.7853981633974483,
            "znear" : 0.1000000014901161
         },
         "type" : "perspective"
      }
   ],
   "extensions" : {
      "KHR_lights_punctual" : {
         "lights" : [
            {
               "color" : [ 1, 0.9333333333333333, 0.8666666666666667 ],
               "intensity" : 0.25,
               "name" : "headLight",
               "type" : "directional"
            },
            {
               "color" : [ 1, 0.9333333333333333, 0.8666666666666667 ],
               "intensity" : 0.324999988079071,
               "name" : "keyLight",
               "type" : "directional"
            }
         ]
      }
   },
   "extensionsUsed" : [ "GOOGLE_backgrounds", "GOOGLE_camera_settings", "KHR_lights_punctual" ],
   "extras" : {
      "GOOGLE_initial_camera_motion" : {
         "motionPath" : "FULL_ROTATION"
      },
      "GOOGLE_lighting_rig" : {
         "disableShadows" : false
      }
   },
   "materials" : [
      {
         "alphaMode" : "OPAQUE",
         "doubleSided" : false,
         "name" : "BlocksPaper",
         "pbrMetallicRoughness" : {
            "baseColorFactor" : [ 1, 1, 1, 1 ],
            "metallicFactor" : 0,
            "roughnessFactor" : 0.6
         }
      },
      {
         "alphaMode" : "BLEND",
         "doubleSided" : false,
         "name" : "BlocksGlass",
         "pbrMetallicRoughness" : {
            "baseColorFactor" : [ 0.2, 0.2, 1, 0.3 ],
            "metallicFactor" : 1,
            "roughnessFactor" : 0.4
         }
      },
      {
         "alphaMode" : "OPAQUE",
         "doubleSided" : true,
         "name" : "BlocksGem",
         "pbrMetallicRoughness" : {
            "baseColorFactor" : [ 1, 0.4, 1, 1 ],
            "metallicFactor" : 0,
            "roughnessFactor" : 0.1
         }
      }
   ],
   "meshes" : [
      {
         "name" : "mesh_m0-PolyGlass24_-120298",
         "primitives" : [
            {
               "attributes" : {
                  "COLOR_0" : 0,
                  "NORMAL" : 8,
                  "POSITION" : 12
               },
               "indices" : 4,
               "material" : 1,
               "mode" : 4
            }
         ]
      },
      {
         "name" : "mesh_m1-PolyGem25_-124156",
         "primitives" : [
            {
               "attributes" : {
                  "COLOR_0" : 1,
                  "NORMAL" : 9,
                  "POSITION" : 13
               },
               "indices" : 5,
               "material" : 2,
               "mode" : 4
            }
         ]
      },
      {
         "name" : "mesh_m2-PolyPaper23_-124222",
         "primitives" : [
            {
               "attributes" : {
                  "COLOR_0" : 2,
                  "NORMAL" : 10,
                  "POSITION" : 14
               },
               "indices" : 6,
               "material" : 0,
               "mode" : 4
            }
         ]
      },
      {
         "name" : "mesh_m3-PolyPaper14_-123726",
         "primitives" : [
            {
               "attributes" : {
                  "COLOR_0" : 3,
                  "NORMAL" : 11,
                  "POSITION" : 15
               },
               "indices" : 7,
               "material" : 0,
               "mode" : 4
            }
         ]
      }
   ],
   "nodes" : [
      {
         "mesh" : 0,
         "name" : "node_MeshObject-1398598656-PolyGlass24"
      },
      {
         "mesh" : 2,
         "name" : "node_MeshObject42316544-PolyPaper23"
      },
      {
         "mesh" : 1,
         "name" : "node_MeshObject561036608-PolyGem25"
      },
      {
         "mesh" : 3,
         "name" : "node_MeshObject900933696-PolyPaper14"
      },
      {
         "children" : [ 5 ]
      },
      {
         "children" : [ 6 ],
         "extras" : {
            "isTransformNode" : 1
         },
         "translation" : [ -0.2295907013817225, -0.8812672351095048, 0.8886742873025817 ]
      },
      {
         "children" : [ 0, 2, 1, 3 ],
         "translation" : [ 0.2295907013817225, 0.8812672351095048, -0.8886742873025817 ]
      },
      {
         "camera" : 0,
         "children" : [ 8 ],
         "rotation" : [
            -0.04400216313126386,
            0.9061927649044768,
            0.09746389630439646,
            0.4091201185369834
         ],
         "translation" : [ 4.409131526947021, 0.7545337677001953, -2.893719434738159 ]
      },
      {
         "extensions" : {
            "KHR_lights_punctual" : {
               "light" : 0
            }
         },
         "extras" : {
            "isHeadLight" : 1
         },
         "name" : "headLightNode",
         "translation" : [ -3.006809203541451, 1.503404601770725, 1.503404601770725 ]
      },
      {
         "extensions" : {
            "KHR_lights_punctual" : {
               "light" : 1
            }
         },
         "extras" : {
            "isKeyLight" : 1
         },
         "name" : "keyLightNode",
         "rotation" : [ -0.7505326882858236, -0.3752663441429118, 0, 0.5439447166468927 ],
         "scale" : [ 0, 0, 3.036877295576865 ],
         "translation" : [ -3.280154916880749, 5.404408490143932, -2.184600329048903 ]
      }
   ],
   "scene" : 0,
   "scenes" : [
      {
         "extensions" : {
            "GOOGLE_backgrounds" : {
               "color" : [ 1, 0.596078431372549, 0 ]
            },
            "GOOGLE_camera_settings" : {}
         },
         "extras" : {
            "GOOGLE_camera_index" : {
               "cameraIndex" : 0,
               "nodeIndex" : 7
            },
            "GOOGLE_geometry_data" : {
               "stats" : {
                  "centroid" : [ -0.2432776213038833, -0.6693461010097991, 0.8522769665279619 ],
                  "radius" : 3.006809203541451,
                  "stdev" : 1.711828294123097
               },
               "visualCenterPoint" : [ -0.2295907013817225, -0.8812672351095048, 0.8886742873025817 ]
            },
            "GOOGLE_hemi_light" : {
               "groundColor" : [ 1, 0.596078431372549, 0 ]
            }
         },
         "name" : "defaultScene",
         "nodes" : [ 4, 7, 9 ]
      }
   ]
}
